<svg xmlns="http://www.w3.org/2000/svg" version="1.1" xmlns:xlink="http://www.w3.org/1999/xlink" xmlns:svgjs="http://svgjs.dev/svgjs" width="1000" height="1000" viewBox="0 0 1000 1000"><rect width="1000" height="1000" fill="#000000"></rect><g transform="matrix(0.7,0,0,0.7,149.57575757575756,282.1265587044535)"><svg viewBox="0 0 396 247" data-background-color="#ba3b0a" preserveAspectRatio="xMidYMid meet" height="623" width="1000" xmlns="http://www.w3.org/2000/svg" xmlns:xlink="http://www.w3.org/1999/xlink"><g id="tight-bounds" transform="matrix(1,0,0,1,0.2400000000000091,-0.09999999999999432)"><svg viewBox="0 0 395.52 247.2" height="247.2" width="395.52"><g><svg></svg></g><g><svg viewBox="0 0 395.52 247.2" height="247.2" width="395.52"><g><g><path d="M96.231 247.2l0-61.739 29.664 0v37.019h45.556c24.014 0 43.154-3.955 57.421-11.866 11.263-6.228 19.985-14.612 26.167-25.153h32.474c-4.859 10.745-11.222 20.33-19.089 28.755-20.624 21.989-52.712 32.984-96.267 32.984zM96.231 0h75.926c43.554 0 75.643 11.065 96.267 33.195 7.757 8.343 14.053 17.858 18.885 28.544l-32.524 0c-6.166-10.421-14.804-18.758-25.913-25.012-14.267-8.005-33.407-12.007-57.421-12.007h-45.556l0 37.019-29.664 0z" fill="#ffa96a" fill-rule="nonzero" stroke="none" stroke-width="1" stroke-linecap="butt" stroke-linejoin="miter" stroke-miterlimit="10" stroke-dasharray="" stroke-dashoffset="0" font-family="none" font-weight="none" font-size="none" text-anchor="none" style="mix-blend-mode: normal" data-fill-palette-color="tertiary"></path></g></g><g transform="matrix(1,0,0,1,0,75.71398037203718)"><svg viewBox="0 0 395.52 95.7720392559256" height="95.7720392559256" width="395.52"><g><svg viewBox="0 0 395.52 95.7720392559256" height="95.7720392559256" width="395.52"><g><svg viewBox="0 0 395.52 95.7720392559256" height="95.7720392559256" width="395.52"><g><svg viewBox="0 0 395.52 95.7720392559256" height="95.7720392559256" width="395.52"><g><svg viewBox="0 0 395.52 95.7720392559256" height="95.7720392559256" width="395.52"><g><svg viewBox="0 0 395.52 95.7720392559256" height="95.7720392559256" width="395.52"><g transform="matrix(1,0,0,1,0,0)"><svg width="395.52" viewBox="3.7 -36 151.14094896447304 36.6" height="95.7720392559256" data-palette-color="#ffa96a"><path d="M14.45 0L3.7 0 3.7-35 14.45-35Q23.7-35 28.08-30.3 32.45-25.6 32.45-17.4L32.45-17.4Q32.45-9.35 28.08-4.67 23.7 0 14.45 0L14.45 0ZM7.9-31.5L7.9-3.5 14.35-3.5Q19.45-3.5 22.48-5.18 25.5-6.85 26.8-9.98 28.1-13.1 28.1-17.4L28.1-17.4Q28.1-21.8 26.8-24.95 25.5-28.1 22.48-29.8 19.45-31.5 14.35-31.5L14.35-31.5 7.9-31.5ZM49.4 0.6L49.4 0.6Q45.85 0.6 43.1-1.03 40.35-2.65 38.77-5.55 37.2-8.45 37.2-12.4L37.2-12.4Q37.2-16.3 38.75-19.23 40.3-22.15 43.07-23.78 45.85-25.4 49.5-25.4L49.5-25.4Q53.1-25.4 55.72-23.78 58.35-22.15 59.75-19.5 61.15-16.85 61.15-13.8L61.15-13.8Q61.15-13.25 61.12-12.7 61.1-12.15 61.1-11.45L61.1-11.45 41.35-11.45Q41.5-8.6 42.67-6.73 43.85-4.85 45.62-3.9 47.4-2.95 49.4-2.95L49.4-2.95Q52-2.95 53.75-4.15 55.5-5.35 56.3-7.4L56.3-7.4 60.45-7.4Q59.45-3.95 56.62-1.68 53.8 0.6 49.4 0.6ZM49.4-21.85L49.4-21.85Q46.4-21.85 44.07-20.03 41.75-18.2 41.4-14.7L41.4-14.7 57-14.7Q56.85-18.05 54.7-19.95 52.55-21.85 49.4-21.85ZM70.9 0L66.7 0 66.7-24.8 70.5-24.8 70.75-20.35Q71.95-22.7 74.2-24.05 76.45-25.4 79.3-25.4L79.3-25.4Q83.7-25.4 86.32-22.73 88.95-20.05 88.95-14.5L88.95-14.5 88.95 0 84.75 0 84.75-14.05Q84.75-21.8 78.35-21.8L78.35-21.8Q75.15-21.8 73.02-19.48 70.9-17.15 70.9-12.85L70.9-12.85 70.9 0ZM99.49 0L95.29 0 95.29-24.8 99.09-24.8 99.34-20.35Q100.54-22.7 102.79-24.05 105.04-25.4 107.89-25.4L107.89-25.4Q112.29-25.4 114.92-22.73 117.54-20.05 117.54-14.5L117.54-14.5 117.54 0 113.34 0 113.34-14.05Q113.34-21.8 106.94-21.8L106.94-21.8Q103.74-21.8 101.62-19.48 99.49-17.15 99.49-12.85L99.49-12.85 99.49 0ZM126.44-30.3L126.44-30.3Q125.19-30.3 124.37-31.13 123.54-31.95 123.54-33.2L123.54-33.2Q123.54-34.4 124.37-35.2 125.19-36 126.44-36L126.44-36Q127.64-36 128.49-35.2 129.34-34.4 129.34-33.2L129.34-33.2Q129.34-31.95 128.49-31.13 127.64-30.3 126.44-30.3ZM128.54 0L124.34 0 124.34-24.8 128.54-24.8 128.54 0ZM145.34 0.6L145.34 0.6Q140.89 0.6 137.94-1.65 134.99-3.9 134.49-7.75L134.49-7.75 138.79-7.75Q139.19-5.8 140.86-4.38 142.54-2.95 145.39-2.95L145.39-2.95Q148.04-2.95 149.29-4.08 150.54-5.2 150.54-6.75L150.54-6.75Q150.54-9 148.91-9.75 147.29-10.5 144.34-11.1L144.34-11.1Q142.34-11.5 140.34-12.25 138.34-13 136.99-14.38 135.64-15.75 135.64-18L135.64-18Q135.64-21.25 138.06-23.33 140.49-25.4 144.64-25.4L144.64-25.4Q148.59-25.4 151.11-23.43 153.64-21.45 154.04-17.8L154.04-17.8 149.89-17.8Q149.64-19.7 148.26-20.78 146.89-21.85 144.59-21.85L144.59-21.85Q142.34-21.85 141.11-20.9 139.89-19.95 139.89-18.4L139.89-18.4Q139.89-16.9 141.46-16.05 143.04-15.2 145.74-14.6L145.74-14.6Q148.04-14.1 150.11-13.38 152.19-12.65 153.51-11.23 154.84-9.8 154.84-7.1L154.84-7.1Q154.89-3.75 152.31-1.58 149.74 0.6 145.34 0.6Z" opacity="1" transform="matrix(1,0,0,1,0,0)" fill="#ffffff" class="undefined-text-0" data-fill-palette-color="primary" id="text-0"></path></svg></g></svg></g></svg></g></svg></g></svg></g></svg></g></svg></g></svg></g><defs></defs></svg><rect width="395.52" height="247.2" fill="none" stroke="none" visibility="hidden"></rect></g></svg></g></svg>